<?xml version="1.0" encoding="UTF-8"?>
<svg xmlns="http://www.w3.org/2000/svg" width="148" height="18" viewBox="0 0 148 18" fill="none">
  <path d="M110.187 0.588135L102.82 17.1348H106.461L113.828 0.588135H110.187Z" fill="black"></path>
  <path d="M128.638 0.588135L123.727 11.6119L120.853 0.588135H117.311L109.943 17.1348H113.683L118.695 5.91289L121.696 17.1348H125.073L132.488 0.588135H128.638Z" fill="black"></path>
  <path d="M95.067 0.600708L90.089 9.30764L85.1624 0.600708H81.6111L88.3126 12.5319V17.1406H91.8649V12.5319L98.6071 0.600708H95.067Z" fill="black"></path>
  <path d="M67.2289 0.600708V3.79556H71.958V17.1406H75.499V3.79556H80.2163V0.600708H67.2289Z" fill="black"></path>
  <path d="M8.93317 13.5764C8.50629 13.984 7.96993 14.1879 7.32407 14.1879H3.55255V9.9317H7.32407C7.96993 9.9317 8.50647 10.1375 8.93317 10.5487C9.35971 10.96 9.57332 11.4659 9.57332 12.0654C9.57332 12.6649 9.35971 13.1688 8.93317 13.5764ZM3.55255 3.55358H6.85118C7.43564 3.55358 7.89694 3.71496 8.23543 4.03789C8.57375 4.36099 8.74291 4.7915 8.74291 5.32977C8.74291 5.86804 8.57375 6.29855 8.23543 6.62165C7.89694 6.94441 7.43546 7.10613 6.85118 7.10613H3.55255V3.55358ZM12.1685 9.70114C11.9302 9.43218 11.6534 9.18415 11.3379 8.95721C11.0228 8.73046 10.8057 8.5881 10.6862 8.53033C10.567 8.47274 10.4691 8.42846 10.392 8.39767L10.5881 8.2823C10.7111 8.20568 10.8668 8.07284 11.0553 7.88448C11.2438 7.69612 11.4341 7.47109 11.6263 7.20991C11.8186 6.94839 11.9762 6.61975 12.0991 6.22383C12.2221 5.82791 12.2837 5.41072 12.2837 4.97225C12.2837 3.81113 11.7937 2.79253 10.813 1.91594C9.83277 1.03918 8.59278 0.600708 7.09334 0.600708H0V17.1406H7.49704C9.13485 17.1406 10.4805 16.6637 11.5341 15.7105C12.5876 14.7569 13.1143 13.619 13.1143 12.2963C13.1143 11.7657 13.016 11.268 12.8201 10.8028C12.6239 10.3375 12.4067 9.97027 12.1683 9.70131" fill="black"></path>
  <path d="M141.06 13.7373C140.687 13.8717 140.305 13.9867 139.918 14.0767C139.156 14.2543 138.334 14.3394 137.559 14.2017C136.8 14.0671 136.059 13.6771 135.642 13.0285C135.073 12.1422 135.21 10.9742 135.553 9.97788C136.665 6.74601 139.769 4.28886 143.155 3.85575C144.071 3.73848 145.091 3.84468 145.86 4.37621L147.41 0.894919C146.497 0.58652 145.41 0.509205 144.428 0.500556C138.689 0.450396 134.084 3.79677 131.621 8.86121C130.465 11.2383 130.638 13.271 131.552 14.9593C133.034 17.6993 136.642 17.7894 139.321 17.1321C139.649 17.0515 139.978 16.9538 140.307 16.8483L141.835 13.4161C141.58 13.5251 141.181 13.6937 141.06 13.7373" fill="black"></path>
  <path d="M14.9069 0.600708V17.1406H25.1892V13.8802H18.4591V0.600708H14.9069Z" fill="black"></path>
  <path d="M65.4107 0.600586H61.8585V17.1406H65.4107V0.600586Z" fill="black"></path>
  <path d="M56.6321 0.56665L50.96 13.4431L45.2487 0.56665H41.7117L49.0687 17.1408H52.8516L60.1795 0.56665H56.6321Z" fill="black"></path>
  <path d="M36.2495 4.88596L38.8126 10.5983H33.465L36.2495 4.88596ZM34.381 0.56665L27.0315 17.1482H30.5541L32.033 13.8435H40.5192L41.9948 17.1482H45.5174L38.1683 0.56665H34.381Z" fill="black"></path>
  <path d="M146.147 17.5C147.131 17.5 147.929 16.7024 147.929 15.7184C147.929 14.7345 147.131 13.9369 146.147 13.9369C145.163 13.9369 144.366 14.7345 144.366 15.7184C144.366 16.7024 145.163 17.5 146.147 17.5Z" fill="black"></path>
</svg>
